<svg version="1.1" id="Layer_1" xmlns="http://www.w3.org/2000/svg" xmlns:xlink="http://www.w3.org/1999/xlink" x="0px" y="0px"
	 width="100%" viewBox="0 0 1024 528" enable-background="new 0 0 1024 528" xml:space="preserve">
<path fill="#000000" opacity="1.000000" stroke="none" 
	d="
M408.061493,416.054169 
	C394.465393,409.349274 381.033234,403.101288 369.253662,393.854279 
	C344.175995,374.168213 329.362213,348.690216 325.561920,316.973816 
	C324.032898,304.213074 324.097473,291.414886 325.577148,278.642822 
	C326.102020,274.112396 325.166443,270.687317 321.456055,267.255707 
	C303.171326,250.344757 294.110260,229.165070 293.600220,204.258698 
	C293.418427,195.380447 293.908539,186.612610 296.685394,178.118530 
	C299.985168,168.024872 308.649689,162.986008 317.898956,165.656342 
	C327.224030,168.348526 332.005432,177.147263 329.294769,187.358856 
	C325.774963,200.618561 326.880920,213.402954 332.521027,225.830612 
	C333.324066,227.600021 333.882538,229.606628 335.730927,230.855362 
	C337.726532,229.730820 337.886444,227.562454 338.521820,225.779816 
	C341.884277,216.346237 346.026031,207.263596 350.506287,198.320679 
	C352.367096,194.606384 354.783752,191.598923 359.405029,193.026764 
	C364.143311,194.490723 365.007996,198.468750 364.162689,202.737747 
	C363.186768,207.666351 363.077271,212.511688 363.812225,217.548584 
	C366.070343,217.107681 366.097168,215.353836 366.597870,214.107437 
	C381.349060,177.387070 399.945923,142.864365 426.080353,112.911209 
	C449.061005,86.572693 475.566925,64.920761 511.094147,58.417542 
	C548.113708,51.641140 581.202087,60.815666 608.964783,86.671707 
	C633.841736,109.840157 647.939941,139.479935 658.177063,171.243622 
	C662.978577,186.141464 666.237366,201.434708 669.228333,216.783188 
	C669.378479,217.553741 669.639832,218.302643 669.984314,219.550583 
	C676.146179,215.549942 681.899048,211.682007 687.792236,208.041229 
	C691.040405,206.034515 694.462524,204.278000 697.920349,202.651276 
	C701.028442,201.189072 703.886719,202.005844 705.897461,204.742310 
	C708.047058,207.667755 707.959351,210.784637 705.297485,213.347504 
	C690.212036,227.871414 686.844788,246.960953 684.264648,266.445862 
	C683.039307,275.699310 683.357971,285.029785 682.361450,294.283051 
	C682.019958,297.454010 683.313293,299.472168 686.252930,301.040283 
	C711.220642,314.359406 725.440308,335.329437 730.066040,363.072479 
	C731.603271,372.292023 728.017822,380.102844 720.447815,383.566162 
	C713.389832,386.795227 705.094543,384.789703 700.186157,378.642456 
	C698.047302,375.963745 697.115479,372.852356 696.602417,369.477295 
	C695.313477,360.997711 692.813660,352.924896 687.674316,345.886475 
	C686.015137,343.614166 684.381287,341.288361 680.788391,339.533295 
	C672.364563,378.973816 649.476807,406.818054 612.444519,423.680267 
	C615.018555,425.493011 616.916748,426.744202 618.723083,428.116302 
	C627.922058,435.104095 628.444946,448.076599 619.504517,455.252869 
	C607.140991,465.176880 595.339783,475.649780 584.532593,487.283691 
	C578.187500,494.114166 566.502930,494.333923 560.114441,488.336700 
	C553.342834,481.979889 553.036682,471.396851 559.731995,464.044708 
	C564.439026,458.875824 569.561768,454.086914 574.450317,449.080994 
	C575.925598,447.570251 577.895264,446.407288 578.381165,444.146515 
	C572.206787,435.978149 563.864319,436.611755 555.000183,437.499603 
	C535.203918,439.482513 515.489929,438.795074 495.875214,434.827820 
	C479.104614,431.435822 461.890076,430.612122 445.212433,426.529724 
	C441.918488,425.723419 441.328491,428.462158 440.587463,430.588470 
	C437.076294,440.663940 432.918121,450.470795 428.520294,460.181549 
	C426.794891,463.991516 424.953247,467.730499 421.514526,470.366119 
	C417.657257,473.322479 413.359772,475.068787 408.479950,474.063599 
	C392.838348,470.841736 377.186279,467.650513 361.619415,464.092285 
	C348.477661,461.088379 343.001343,448.195343 350.154388,437.601440 
	C354.810516,430.705597 361.736237,429.685211 369.226837,431.127502 
	C378.534149,432.919525 387.824249,434.840973 397.038971,437.051697 
	C400.179504,437.805176 401.852875,437.033356 402.784271,434.172363 
	C404.711060,428.253357 408.645294,422.953491 408.061493,416.054169 
M598.259766,279.739258 
	C619.387634,266.120239 636.783936,248.044601 655.632751,231.703583 
	C657.310791,230.248764 657.651123,228.577911 657.242249,226.344635 
	C654.366638,210.637573 651.487671,194.948044 646.767212,179.644684 
	C637.847900,150.728683 626.115723,123.331375 604.632812,101.211685 
	C578.011169,73.800919 545.906311,63.384720 508.633057,72.451149 
	C476.816193,80.190338 453.230957,100.713448 433.051575,125.371330 
	C404.988098,159.663040 385.069397,198.422119 371.281403,240.439667 
	C370.473907,242.900574 370.675690,244.796219 371.839569,247.024338 
	C379.253845,261.217834 390.730011,270.917786 405.111359,277.457214 
	C432.429474,289.879150 455.604889,307.642975 474.203552,331.237549 
	C476.149567,333.706268 477.731903,334.570557 480.857452,333.229095 
	C485.277344,331.332062 489.934448,329.945618 494.559631,328.575562 
	C531.390808,317.665558 565.924805,301.883698 598.259766,279.739258 
M676.663574,235.038467 
	C674.536621,231.727676 673.009888,234.765594 671.695740,235.744293 
	C660.717957,243.919800 651.129272,253.687851 640.998047,262.834930 
	C602.678101,297.432739 558.468750,321.641632 509.541260,337.607391 
	C497.225830,341.626068 484.790009,345.128265 473.232758,351.460449 
	C452.944183,362.576477 449.291687,396.638397 471.128296,410.769653 
	C478.076202,415.265869 485.490875,418.473236 493.416595,420.583557 
	C506.854187,424.161469 520.680969,424.720459 534.454834,425.513092 
	C537.802979,425.705780 541.383118,425.735382 544.446350,423.401154 
	C544.095703,421.149780 542.280334,420.355225 541.019653,419.127777 
	C532.450378,410.784698 534.541687,397.105194 545.081848,391.769073 
	C551.470703,388.534576 557.274292,389.734528 563.011658,393.344299 
	C573.301575,399.818390 583.651733,406.196808 593.946472,412.663269 
	C596.302307,414.143005 598.454468,414.944977 601.378845,413.769196 
	C637.807129,399.122986 660.944519,373.432068 668.168335,334.238068 
	C668.758911,331.033966 667.955017,329.461456 665.111572,328.608337 
	C661.286621,327.460754 657.395691,326.518036 653.611206,325.253479 
	C642.262085,321.461182 638.239197,308.198364 645.692078,298.934875 
	C650.343079,293.153839 656.674866,291.485840 663.667358,293.122223 
	C668.050842,294.148071 669.895508,293.282440 669.746948,288.513214 
	C669.187927,270.563782 672.029846,253.034164 676.663574,235.038467 
M383.658966,387.831604 
	C404.760437,401.939606 428.292725,409.576691 453.042389,414.562378 
	C453.099701,413.584869 453.237823,413.206451 453.115814,412.953400 
	C452.684265,412.058136 452.230072,411.160004 451.666931,410.344055 
	C444.337555,399.723358 441.669647,388.185394 443.609619,375.291962 
	C445.530762,362.523804 450.270508,351.559265 461.064117,343.984680 
	C464.772736,341.382080 464.109100,339.399475 461.677917,336.423004 
	C444.788086,315.744934 423.644714,300.694061 399.665161,289.434570 
	C377.768677,279.153198 362.237854,263.206024 354.592224,239.976013 
	C353.729797,237.355713 353.453186,234.457764 351.075134,231.506973 
	C350.069733,233.925568 349.112579,235.809448 348.492554,237.798401 
	C346.660370,243.676025 344.732971,249.538483 343.252014,255.508392 
	C338.291016,275.506775 335.645294,295.694275 338.674438,316.322815 
	C343.108246,346.516968 357.827179,370.244568 383.658966,387.831604 
z"/>
<path fill="#000000" opacity="1.000000" stroke="none" 
	d="
M882.000000,319.975616 
	C848.839478,320.002289 816.178894,320.039093 783.518372,320.047943 
	C775.196289,320.050201 771.363892,316.782257 771.664856,310.073425 
	C771.867249,305.562592 774.818909,302.341431 779.407410,301.800964 
	C781.053589,301.607056 782.735657,301.692749 784.401306,301.692719 
	C842.890503,301.691010 901.379761,301.692566 959.868958,301.698608 
	C969.047119,301.699554 973.271240,304.517914 973.326477,310.641052 
	C973.381348,316.720856 968.561768,320.046783 959.485413,320.046478 
	C933.823608,320.045685 908.161804,320.002106 882.000000,319.975616 
z"/>
<path fill="#000000" opacity="1.000000" stroke="none" 
	d="
M64.017365,320.035339 
	C60.521500,320.041504 57.518856,320.138885 54.523445,320.032562 
	C48.103725,319.804718 43.636524,315.888763 43.673855,310.649231 
	C43.712269,305.257019 47.974056,301.709503 54.687763,301.707001 
	C106.510925,301.687592 158.334106,301.702728 210.157272,301.706757 
	C218.488968,301.707397 226.821167,301.648621 235.152176,301.723663 
	C241.740982,301.783020 245.125153,304.650482 245.350998,310.126984 
	C245.601364,316.198090 242.736160,319.247955 235.938965,319.866516 
	C233.292740,320.107300 230.611954,319.997314 227.946899,319.998108 
	C173.469223,320.014435 118.991547,320.023651 64.017365,320.035339 
z"/>
<path fill="#000000" opacity="1.000000" stroke="none" 
	d="
M909.000000,389.728699 
	C926.818726,389.730804 944.137390,389.743988 961.456116,389.725159 
	C964.330078,389.722046 967.151855,389.854797 969.504822,391.766205 
	C972.597412,394.278442 974.318115,397.410156 972.855408,401.409882 
	C971.501465,405.112122 969.081848,407.468964 964.678223,407.436737 
	C949.525208,407.325745 934.370850,407.379120 919.217041,407.382355 
	C873.422424,407.392090 827.627869,407.415161 781.833252,407.413208 
	C774.789612,407.412903 771.813904,405.013763 771.620178,399.353241 
	C771.420715,393.526001 774.670044,390.029663 780.608459,389.744324 
	C782.270142,389.664459 783.938354,389.714966 785.603577,389.715118 
	C826.569031,389.718994 867.534546,389.724152 909.000000,389.728699 
z"/>
<path fill="#000000" opacity="1.000000" stroke="none" 
	d="
M46.605919,392.559875 
	C48.982738,390.393616 51.444000,389.717896 54.239208,389.719269 
	C114.692680,389.749176 175.146194,389.722015 235.599609,389.785553 
	C242.502625,389.792786 245.975433,393.669678 245.302216,400.130615 
	C244.843460,404.533234 242.422287,407.084869 237.875839,407.350281 
	C236.879501,407.408447 235.877975,407.385773 234.878830,407.385925 
	C174.758438,407.394897 114.638000,407.376862 54.517719,407.463470 
	C50.174809,407.469727 46.631851,406.732971 44.598663,402.441528 
	C42.864517,398.781250 43.690655,395.671600 46.605919,392.559875 
z"/>
<path fill="#000000" opacity="1.000000" stroke="none" 
	d="
M806.491333,329.834717 
	C809.152649,330.056458 809.415955,331.632355 809.446838,333.429962 
	C809.695679,347.909485 809.913025,362.389862 810.254395,376.867279 
	C810.331482,380.136139 809.315369,381.918945 805.778809,381.857117 
	C802.498108,381.799744 800.498474,380.978394 800.605347,377.014526 
	C800.820557,369.028381 800.643921,361.031311 800.599915,353.038910 
	C800.589172,351.085938 800.833191,349.056671 799.406067,347.115570 
	C796.257568,348.670776 795.898315,352.918152 792.555237,354.044006 
	C789.750244,352.537048 789.373962,348.899475 786.475281,347.440399 
	C784.724426,349.702179 785.389343,352.272919 785.357727,354.660614 
	C785.258484,362.152435 785.189148,369.649292 785.368591,377.138000 
	C785.451294,380.590485 784.125549,381.968781 780.743164,381.948853 
	C777.420288,381.929260 775.524292,381.112030 775.577393,377.147705 
	C775.760315,363.496155 775.594788,349.840271 775.691101,336.186951 
	C775.706177,334.050781 774.535828,330.840118 777.597778,330.178223 
	C781.015442,329.439484 784.954529,328.486603 787.737061,332.073090 
	C789.252502,334.026398 790.661377,336.062439 792.497009,338.580780 
	C796.695068,334.835724 798.625977,327.634521 806.491333,329.834717 
z"/>
<path fill="#000000" opacity="1.000000" stroke="none" 
	d="
M65.041100,332.783752 
	C67.977112,328.322968 71.985970,329.704254 75.645729,330.253632 
	C77.515045,330.534180 77.324753,332.521210 77.326660,333.981781 
	C77.345779,348.630096 77.287094,363.278656 77.350983,377.926666 
	C77.363342,380.761505 76.145950,381.953857 73.451271,381.670135 
	C70.773529,381.388275 67.573891,382.003937 67.661507,377.489471 
	C67.816513,369.502930 67.666382,361.510468 67.646309,353.520477 
	C67.641388,351.559998 67.645569,349.599548 67.645569,347.017059 
	C64.177017,348.822571 63.465839,352.382202 60.790657,354.170898 
	C57.690681,352.655975 56.955692,349.128815 54.278221,347.007690 
	C52.903397,348.642731 53.400307,350.499237 53.382389,352.138885 
	C53.295109,360.128052 53.303436,368.118744 53.337585,376.108612 
	C53.350224,379.064941 53.591755,381.848022 49.175568,381.710052 
	C45.395672,381.591919 43.512608,380.602020 43.589169,376.254364 
	C43.826527,362.775513 43.611214,349.289246 43.690228,335.806549 
	C43.702675,333.682739 42.648727,330.526337 45.971756,330.057861 
	C49.262901,329.593811 53.018585,328.504150 55.584412,332.130371 
	C57.012409,334.148529 58.498318,336.125671 60.073017,338.278381 
	C62.679222,337.175873 63.387775,334.788666 65.041100,332.783752 
z"/>
<path fill="#000000" opacity="1.000000" stroke="none" 
	d="
M178.967285,370.929321 
	C177.028000,366.856476 175.239716,363.130005 173.451416,359.403534 
	C173.072739,359.448944 172.694077,359.494354 172.315399,359.539764 
	C172.315399,365.068298 172.283356,370.597137 172.328293,376.125305 
	C172.352448,379.097778 172.551300,381.799011 168.102066,381.637207 
	C164.366928,381.501312 162.751755,380.323578 162.783569,376.371643 
	C162.894775,362.557648 162.729279,348.741547 162.723022,334.926270 
	C162.722076,332.847290 162.244385,330.282990 165.406479,329.915131 
	C168.272690,329.581696 170.956467,329.445404 172.402924,332.980530 
	C175.264755,339.974792 178.435547,346.842651 182.631180,353.550354 
	C182.631180,347.304474 182.715820,341.056976 182.595627,334.813385 
	C182.535156,331.672455 183.229889,329.760864 186.948715,329.759064 
	C190.635071,329.757263 191.369705,331.615265 191.352356,334.777130 
	C191.274841,348.924988 191.339233,363.073517 191.305145,377.221710 
	C191.300980,378.956024 191.815201,381.264618 189.167404,381.537659 
	C186.892258,381.772339 184.362091,381.947571 183.033844,379.362549 
	C181.665451,376.699402 180.418411,373.973877 178.967285,370.929321 
z"/>
<path fill="#000000" opacity="1.000000" stroke="none" 
	d="
M965.742737,374.878754 
	C965.722229,371.742401 965.711670,369.076996 965.685242,366.411713 
	C965.642090,362.063232 963.277100,360.075897 959.090820,359.998688 
	C954.501526,359.914032 955.414795,363.334290 955.356689,366.027008 
	C955.273926,369.856964 955.214783,373.693756 955.353455,377.520111 
	C955.461548,380.503662 954.256653,381.967010 951.272095,381.645874 
	C948.793823,381.379211 945.670105,382.118286 945.691589,377.845886 
	C945.766174,363.019867 945.728699,348.193146 945.701660,333.366791 
	C945.696960,330.798859 947.018677,329.782318 949.424194,329.790131 
	C954.087952,329.805298 958.784485,329.454193 963.408691,329.885193 
	C973.384827,330.814972 979.442383,342.172546 974.847900,351.345490 
	C973.419128,354.198151 973.010376,356.319427 974.253540,359.565704 
	C976.733337,366.040771 975.175598,373.061340 975.359192,379.846985 
	C975.412964,381.834442 973.337402,381.977966 971.903870,381.714508 
	C969.804382,381.328552 966.898132,382.460236 966.001160,379.320587 
	C965.645081,378.074371 965.815002,376.677826 965.742737,374.878754 
M955.337830,345.417389 
	C955.488953,346.838409 954.897766,348.814240 956.686340,349.309662 
	C959.377869,350.055206 962.300598,350.468109 964.681885,348.368011 
	C966.621521,346.657471 967.198364,344.509949 965.779846,342.133423 
	C964.044312,339.225800 961.177185,339.239960 958.329895,339.397888 
	C954.785217,339.594452 955.490234,342.358124 955.337830,345.417389 
z"/>
<path fill="#000000" opacity="1.000000" stroke="none" 
	d="
M848.591858,347.190186 
	C847.190491,339.904388 849.862427,334.753998 855.557495,331.065613 
	C860.740662,327.708740 865.948242,328.064331 870.984680,331.499878 
	C876.438782,335.220306 878.674622,341.399353 877.342285,348.222046 
	C876.736084,351.326263 874.449036,350.979889 872.360596,351.036743 
	C870.151855,351.096893 867.842651,351.060730 867.720398,347.916809 
	C867.662231,346.420471 867.742126,344.907227 867.545166,343.430206 
	C867.117676,340.223633 865.165955,338.590027 861.995789,339.238831 
	C858.656860,339.922180 857.445862,342.318115 858.130798,345.608978 
	C858.651855,348.112732 860.462463,349.478241 862.592834,350.652740 
	C865.789978,352.415375 869.134521,354.043945 871.979065,356.284576 
	C877.628723,360.734863 879.142151,368.146545 876.082092,374.177765 
	C873.088074,380.078766 865.564392,383.805389 859.880737,382.202545 
	C852.595154,380.147949 847.516724,373.424011 847.791565,366.338348 
	C847.875854,364.167603 848.661743,362.636047 850.971619,362.836273 
	C853.193176,363.028809 856.191223,361.348114 857.285583,364.947479 
	C857.621948,366.053833 857.735229,367.231110 858.105164,368.323547 
	C858.904724,370.684235 860.310974,372.662903 863.049011,372.428284 
	C865.130127,372.249908 866.724731,370.821960 867.334839,368.721771 
	C868.054749,366.243622 866.764709,364.521515 864.787842,363.298889 
	C862.384460,361.812500 859.869202,360.508026 857.447021,359.050568 
	C853.023132,356.388489 849.489319,353.014771 848.591858,347.190186 
z"/>
<path fill="#000000" opacity="1.000000" stroke="none" 
	d="
M240.660095,358.935760 
	C240.666916,350.457550 240.774048,342.467407 240.635910,334.481445 
	C240.576675,331.056915 241.865585,329.753632 245.309555,329.739655 
	C248.849274,329.725250 250.422974,330.816620 250.362411,334.610809 
	C250.192474,345.259338 250.342087,355.912567 250.304230,366.563721 
	C250.272919,375.373108 243.982208,382.331299 235.822556,382.692749 
	C228.613632,383.012024 220.967346,375.630035 220.766541,367.502350 
	C220.491226,356.358826 220.780609,345.202423 220.668640,334.053162 
	C220.630234,330.229218 222.781982,329.802246 225.808029,329.789551 
	C228.892471,329.776642 230.375793,330.832245 230.340271,334.138885 
	C230.234787,343.956818 230.299271,353.776825 230.334305,363.595886 
	C230.348236,367.501678 230.290375,371.717377 235.409851,372.472382 
	C238.819397,372.975189 240.664886,369.516296 240.668259,363.419800 
	C240.669006,362.088379 240.663605,360.756927 240.660095,358.935760 
z"/>
<path fill="#000000" opacity="1.000000" stroke="none" 
	d="
M820.640198,345.885834 
	C821.359680,341.710388 822.225159,337.988373 822.704529,334.217255 
	C823.311707,329.441162 826.648499,329.696808 830.083618,329.728424 
	C833.235352,329.757416 835.747192,329.802032 836.429993,334.098785 
	C838.715210,348.478516 841.428955,362.790344 843.999268,377.124420 
	C844.364868,379.163513 844.919800,381.410034 841.906067,381.609070 
	C839.327820,381.779358 835.693909,383.374786 834.848450,379.363708 
	C834.084229,375.737946 831.775452,375.999420 829.296387,375.985657 
	C826.940491,375.972565 824.852844,375.914276 824.136719,379.218994 
	C823.261719,383.256073 819.738220,381.763855 817.121582,381.540558 
	C813.621582,381.241821 814.664429,378.597412 815.019470,376.613068 
	C816.828125,366.504395 818.739380,356.414154 820.640198,345.885834 
M830.090637,366.659668 
	C831.158264,366.532318 832.139099,366.149658 831.956360,364.885406 
	C831.329712,360.549133 830.599854,356.227783 829.909363,351.900757 
	C828.267639,356.030182 827.731079,360.069214 827.025146,364.078461 
	C826.656250,366.173401 827.592163,366.761780 830.090637,366.659668 
z"/>
<path fill="#000000" opacity="1.000000" stroke="none" 
	d="
M913.615601,370.848114 
	C913.614868,358.558502 913.726868,346.747650 913.551941,334.941071 
	C913.493774,331.013397 914.962402,329.567505 918.809631,329.726135 
	C923.791321,329.931610 928.789673,329.901123 933.775818,329.775085 
	C937.271240,329.686737 938.344299,331.263214 938.375549,334.605804 
	C938.408020,338.070679 937.455688,340.059998 933.671204,339.898926 
	C932.011353,339.828247 930.329102,340.055786 928.685303,339.881073 
	C924.141418,339.398163 922.904114,341.587799 923.131531,345.787109 
	C923.297852,348.858643 924.546875,349.941559 927.428528,349.772736 
	C929.085449,349.675690 930.757446,349.851257 932.416382,349.771851 
	C935.947876,349.602753 938.443542,350.017151 938.427917,354.729492 
	C938.412842,359.274414 936.151794,360.051208 932.522217,359.897003 
	C931.028137,359.833527 929.521729,359.989227 928.033325,359.878418 
	C924.312073,359.601349 923.138123,361.361938 923.155701,364.941833 
	C923.188538,371.597229 923.101501,371.678925 929.613464,371.733368 
	C930.944092,371.744476 932.281555,371.839203 933.603943,371.738678 
	C936.977295,371.482208 938.345825,372.869720 938.386475,376.353546 
	C938.426208,379.757385 937.650818,381.868225 933.825745,381.773590 
	C928.011108,381.629730 922.195923,381.500397 916.380310,381.410706 
	C914.276550,381.378235 913.390381,380.391541 913.482422,378.311462 
	C913.585144,375.986389 913.576538,373.656403 913.615601,370.848114 
z"/>
<path fill="#000000" opacity="1.000000" stroke="none" 
	d="
M128.671143,339.853760 
	C126.547295,339.894073 124.881577,339.893158 123.216034,339.910095 
	C117.670715,339.966461 116.878426,340.944641 117.316803,346.376923 
	C117.499901,348.645813 118.366371,349.753204 120.655106,349.731964 
	C122.653519,349.713440 124.670113,349.934723 126.647636,349.737976 
	C130.945786,349.310394 132.533295,350.942780 132.461914,355.397095 
	C132.386688,360.090485 129.753830,359.979645 126.533562,359.667145 
	C125.872124,359.602966 125.203423,359.587097 124.538330,359.591095 
	C117.730988,359.632202 115.456635,362.866730 117.418045,369.530914 
	C117.885559,371.119385 118.867256,371.645233 120.330070,371.669769 
	C122.495049,371.706085 124.665504,371.819153 126.824570,371.713776 
	C130.289719,371.544586 132.428238,372.226990 132.454956,376.547424 
	C132.481216,380.791382 130.558289,381.542633 126.982407,381.484589 
	C121.994080,381.403564 117.000069,381.705170 112.007889,381.815918 
	C108.927612,381.884247 107.595520,380.503235 107.619133,377.268250 
	C107.723709,362.943512 107.700264,348.617218 107.610252,334.292175 
	C107.590401,331.131439 108.775024,329.705994 111.994774,329.768402 
	C117.323135,329.871674 122.654938,329.784393 127.985100,329.813477 
	C130.053116,329.824768 132.344177,329.934967 132.217560,332.763245 
	C132.098984,335.412415 133.950363,339.153534 128.671143,339.853760 
z"/>
<path fill="#000000" opacity="1.000000" stroke="none" 
	d="
M889.625488,373.646759 
	C889.603638,364.205383 889.519348,355.223358 889.593262,346.242615 
	C889.625061,342.386230 888.781311,339.633118 884.106140,339.984802 
	C879.727844,340.314148 879.569336,337.503662 879.548157,334.153595 
	C879.524719,330.459229 881.390076,329.673767 884.538391,329.726868 
	C891.023438,329.836243 897.512451,329.866882 903.997192,329.763489 
	C907.252014,329.711609 909.020996,330.825653 909.020569,334.311493 
	C909.020203,337.476593 908.506836,340.169006 904.514709,339.837555 
	C899.491028,339.420410 898.815674,342.287476 898.906433,346.351288 
	C899.122009,355.994568 899.134827,365.642975 899.166016,375.289520 
	C899.175964,378.365295 899.927490,381.657288 894.756836,381.756622 
	C889.424683,381.859131 889.258606,378.914764 889.623962,375.104187 
	C889.655518,374.774597 889.627502,374.439270 889.625488,373.646759 
z"/>
<path fill="#000000" opacity="1.000000" stroke="none" 
	d="
M460.006653,246.928238 
	C457.101440,243.589325 455.338928,240.017548 454.157898,236.173431 
	C452.932587,232.185043 454.642578,228.168625 458.158875,227.187347 
	C462.023285,226.108932 465.041199,227.287292 466.515564,231.342453 
	C467.026337,232.747208 467.599030,234.134598 468.230072,235.489548 
	C470.649048,240.683792 475.015320,243.412628 480.470428,243.586212 
	C486.230896,243.769531 491.224609,241.564499 494.171692,236.136810 
	C494.962830,234.679733 495.433380,233.031616 496.329865,231.652359 
	C497.963654,229.138641 500.159851,227.322052 503.406097,228.359528 
	C506.531982,229.358505 508.460175,231.371521 508.305450,234.985306 
	C508.217346,237.043976 507.661926,238.885361 506.781250,240.705856 
	C499.028168,256.732513 476.247009,264.721008 460.006653,246.928238 
z"/>
<path fill="#000000" opacity="1.000000" stroke="none" 
	d="
M537.748901,195.509979 
	C543.513916,205.362106 538.992798,219.411942 531.460266,223.239120 
	C526.431580,225.794113 522.833008,225.454788 518.817810,221.565216 
	C511.041473,214.032013 512.936646,197.271103 522.202698,191.629517 
	C527.406616,188.461136 532.993774,189.756424 537.748901,195.509979 
z"/>
<path fill="#000000" opacity="1.000000" stroke="none" 
	d="
M457.316406,210.174225 
	C453.546600,214.251511 449.737823,217.600754 444.079681,215.135300 
	C438.502533,212.705154 436.787720,207.948700 436.624695,202.175491 
	C436.479004,197.015701 437.217346,192.261032 440.514435,188.104340 
	C446.560181,180.482361 456.319794,181.840271 459.929169,190.892715 
	C462.611664,197.620575 461.366119,203.928711 457.316406,210.174225 
z"/>
</svg>